<svg xmlns="http://www.w3.org/2000/svg" width="20" height="20" viewBox="0 0 20 20" fill="none">
<path d="M8.60997 13.8271H3.35938" stroke="#667085" stroke-width="1.25" stroke-linecap="round" stroke-linejoin="round"/>
<path d="M10.9531 5.75049H16.2037" stroke="#667085" stroke-width="1.25" stroke-linecap="round" stroke-linejoin="round"/>
<path fill-rule="evenodd" clip-rule="evenodd" d="M7.27451 5.70521C7.27451 4.6255 6.39271 3.75 5.30522 3.75C4.21774 3.75 3.33594 4.6255 3.33594 5.70521C3.33594 6.78492 4.21774 7.66042 5.30522 7.66042C6.39271 7.66042 7.27451 6.78492 7.27451 5.70521Z" stroke="#667085" stroke-width="1.25" stroke-linecap="round" stroke-linejoin="round"/>
<path fill-rule="evenodd" clip-rule="evenodd" d="M16.669 13.7951C16.669 12.7153 15.7879 11.8398 14.7004 11.8398C13.6123 11.8398 12.7305 12.7153 12.7305 13.7951C12.7305 14.8748 13.6123 15.7503 14.7004 15.7503C15.7879 15.7503 16.669 14.8748 16.669 13.7951Z" stroke="#667085" stroke-width="1.25" stroke-linecap="round" stroke-linejoin="round"/>
</svg>