<svg xmlns="http://www.w3.org/2000/svg" width="24" height="24" viewBox="0 0 24 24" fill="none">
<path d="M8.16857 19.764C11.3668 21.2486 15.2786 20.6759 17.9184 18.0264C21.2894 14.644 21.295 9.1556 17.9184 5.7666C14.5473 2.38509 9.07088 2.38509 5.69984 5.7666C3.06017 8.41613 2.48853 12.3403 3.96902 15.5493C4.15863 16.0245 4.30621 16.406 4.30621 16.7761C4.30621 17.8108 3.31144 19.092 3.97462 19.7575C4.63781 20.4229 5.91467 19.4248 6.94027 19.4191C7.3083 19.4191 7.69593 19.5728 8.16857 19.764Z" stroke="#667085" stroke-width="1.44" stroke-linecap="round" stroke-linejoin="round"/>
<path d="M11.5931 15.6035L11.5987 15.6373" stroke="#667085" stroke-width="1.44" stroke-linecap="round" stroke-linejoin="round"/>
<path d="M11.5937 13.4457C11.5834 12.6576 12.298 12.3239 12.8295 12.0193C13.4768 11.6613 13.9158 11.0905 13.9158 10.2994C13.9158 9.12701 12.9705 8.18604 11.8095 8.18604C10.6409 8.18604 9.70312 9.12701 9.70312 10.2994" stroke="#667085" stroke-width="1.44" stroke-linecap="round" stroke-linejoin="round"/>
</svg>