<svg xmlns="http://www.w3.org/2000/svg" width="18" height="18" viewBox="0 0 18 18" fill="none">
<path d="M14.8745 9.7137V6.87055C14.8745 6.46266 14.7167 6.07063 14.4349 5.77679L11.5147 2.73496C11.2171 2.42527 10.8054 2.25002 10.3756 2.25002H6.02324C4.45209 2.24398 3.16421 3.49561 3.1272 5.06675V9.7137" stroke="#667085" stroke-width="1.125" stroke-linecap="round" stroke-linejoin="round"/>
<path d="M10.748 2.29639V4.52394C10.7473 5.61166 11.6273 6.49392 12.715 6.49618H14.8247" stroke="#667085" stroke-width="1.125" stroke-linecap="round" stroke-linejoin="round"/>
<path d="M3.3125 14.6039H4.36018C5.00073 14.6039 5.52041 14.0842 5.52041 13.4437C5.52041 12.8039 5.00073 12.2842 4.36018 12.2842H3.3125V15.7452" stroke="#667085" stroke-width="1.125" stroke-linecap="round" stroke-linejoin="round"/>
<path d="M14.8713 12.2812H12.9919V15.7506M14.5824 14.3053H12.9923" stroke="#667085" stroke-width="1.125" stroke-linecap="round" stroke-linejoin="round"/>
<path fill-rule="evenodd" clip-rule="evenodd" d="M8.74044 15.7506C9.20049 15.7506 9.64164 15.5678 9.96722 15.2422C10.2927 14.9174 10.4756 14.4764 10.4756 14.0163C10.4756 13.5556 10.2927 13.1144 9.96722 12.7896C9.64164 12.464 9.20049 12.2812 8.74044 12.2812H7.87329V15.7506H8.74044Z" stroke="#667085" stroke-width="1.125" stroke-linecap="round" stroke-linejoin="round"/>
</svg>