<svg xmlns="http://www.w3.org/2000/svg" width="25" height="25" viewBox="0 0 25 25" fill="none">
<path fill-rule="evenodd" clip-rule="evenodd" d="M18.4031 17.8927L18.4021 7.12874C18.4021 5.13123 16.7821 3.51123 14.7846 3.51123H9.26889C7.27137 3.51123 5.65137 5.13123 5.65137 7.12972L5.65235 17.8937C5.65235 19.8912 7.27235 21.5112 9.26986 21.5112H14.7846C16.7831 21.5112 18.4031 19.8912 18.4031 17.8927Z" stroke="#667085" stroke-width="1.5" stroke-linecap="round" stroke-linejoin="round"/>
<path d="M12.0275 17.8418V17.7936M12.0275 17.5405C11.8893 17.5405 11.7773 17.6525 11.7773 17.7903C11.7773 17.9285 11.8893 18.0405 12.0275 18.0405C12.1658 18.0405 12.2778 17.9285 12.2778 17.7903C12.2778 17.6525 12.1658 17.5405 12.0275 17.5405Z" stroke="#667085" stroke-width="1.5" stroke-linecap="round" stroke-linejoin="round"/>
</svg>