<svg xmlns="http://www.w3.org/2000/svg" width="25" height="25" viewBox="0 0 25 25" fill="none">
<path fill-rule="evenodd" clip-rule="evenodd" d="M5.46045 10.0777C5.46045 6.45051 8.40071 3.51123 12.0268 3.51123C15.653 3.51123 18.5933 6.45051 18.5933 10.0777L18.5943 11.396C18.5943 12.1763 18.7655 12.9459 19.0982 13.6513L19.5643 14.6417C20.2765 16.1556 19.1722 17.8963 17.4987 17.8963H6.55502C4.88155 17.8963 3.77725 16.1556 4.48945 14.6417L4.95549 13.6513C5.28727 12.9459 5.45948 12.1763 5.45948 11.396L5.46045 10.0777Z" stroke="#667085" stroke-width="1.5" stroke-linecap="round" stroke-linejoin="round"/>
<path d="M8.92773 18.4116C8.92773 20.123 10.3151 21.5114 12.0265 21.5114C13.7389 21.5114 15.1263 20.123 15.1263 18.4116" stroke="#667085" stroke-width="1.5" stroke-linecap="round" stroke-linejoin="round"/>
</svg>